<svg id="Capa_1" data-name="Capa 1" xmlns="http://www.w3.org/2000/svg" viewBox="0 0 438.53 438.54"><defs><style>.cls-1{fill:#00df64;}</style></defs><path class="cls-1" d="M414.41,24.12Q390.29,0,356.32,0H82.23q-34,0-58.1,24.12T0,82.22V356.31q0,34,24.13,58.1t58.1,24.13H356.31q34,0,58.1-24.13t24.12-58.1V82.22Q438.53,48.26,414.41,24.12ZM359.16,332.87q-6,13.14-27,22.85t-37.26,9.71a70,70,0,0,1-9.71-.71c-3.43-.48-6.33-1-8.7-1.43a91.32,91.32,0,0,1-9.43-2.57c-3.9-1.23-6.71-2.19-8.42-2.85s-4.85-1.86-9.42-3.57-7.43-2.76-8.56-3.14Q193.85,334,149.17,289.35t-61.81-91.5c-.38-1.14-1.42-4-3.14-8.57s-2.9-7.7-3.57-9.42-1.62-4.52-2.85-8.42A93.9,93.9,0,0,1,75.23,162c-.48-2.37-1-5.28-1.43-8.7a71.77,71.77,0,0,1-.71-9.71q0-16.28,9.71-37.26t22.84-27q15.14-6.28,28.84-6.28a13.26,13.26,0,0,1,4.56.57q1.44.57,4.72,5.14a115.89,115.89,0,0,1,7.13,11.56q3.86,7,7.57,13.56t7.14,13q3.42,6.42,4.28,8.14.85,1.42,3.71,5.43a44,44,0,0,1,4.28,7.13,14.54,14.54,0,0,1,1.43,6q0,4.29-5.85,10.42a98.54,98.54,0,0,1-12.85,11.28,111.26,111.26,0,0,0-12.85,11q-5.85,5.85-5.85,9.56a13.79,13.79,0,0,0,1,4.71,42.5,42.5,0,0,0,1.85,4.43c.57,1.14,1.48,2.76,2.71,4.86s2,3.42,2.43,4A218.39,218.39,0,0,0,186,252.54a217.84,217.84,0,0,0,48.69,36.11c.56.39,1.9,1.2,4,2.43s3.71,2.14,4.85,2.71a44.43,44.43,0,0,0,4.43,1.85,13.89,13.89,0,0,0,4.72,1q4.55,0,12.56-9.42t16.27-18.7q8.28-9.27,13.42-9.27a14.56,14.56,0,0,1,6,1.42,43.57,43.57,0,0,1,7.13,4.28q4,2.87,5.43,3.72L328.63,277q15.12,8,25.27,14.13t11,8.42a13.32,13.32,0,0,1,.57,4.57Q365.45,317.77,359.16,332.87Z" transform="translate(0)"/></svg>