<svg id="Layer_1" data-name="Layer 1" xmlns="http://www.w3.org/2000/svg" viewBox="0 0 71.75 73.5"><defs><style>.cls-1{fill:#00e96f;}.cls-2{fill:#fff;}</style></defs><path class="cls-1" d="M62.29,75H12.46a11.06,11.06,0,0,1-11-11.23v-51a11.06,11.06,0,0,1,11-11.23H62.29a11.06,11.06,0,0,1,11,11.23v51A11.06,11.06,0,0,1,62.29,75Z" transform="translate(-1.5 -1.5)"/><path class="cls-2" d="M41.36,27a2.93,2.93,0,0,0,0,4.08l3.29,3.37c1.39,1.43,0,5.11-3,8.17s-6.58,4.49-8,3.06L30.4,42.33a2.79,2.79,0,0,0-4,0L18.54,50.4a2.93,2.93,0,0,0,0,4.08l2.09,2.15c4.39,4.49,15.75.1,25.32-9.7S59.8,25.49,55.41,21l-2.09-2.15a2.79,2.79,0,0,0-4,0Z" transform="translate(-1.5 -1.5)"/></svg>